<?xml version="1.0" encoding="utf-8"?>
<!-- Generator: Adobe Illustrator 25.1.0, SVG Export Plug-In . SVG Version: 6.00 Build 0)  -->
<svg version="1.1" id="Layer_1" xmlns="http://www.w3.org/2000/svg" xmlns:xlink="http://www.w3.org/1999/xlink" x="0px" y="0px"
	 viewBox="0 0 529.927124 547.3912964" enable-background="new 0 0 529.927124 547.3912964" xml:space="preserve">
<path display="none" fill="#00738E" d="M341.0563049,506.9926147"/>
<path fill="#3A6351" stroke="#000000" stroke-width="0.5" stroke-linecap="round" stroke-linejoin="round" d="
	M322.1381836,410.3210754"/>
<path fill="#3A6351" d="M223.3932037,424.3688965c37.9199982-101.1799927-29.8099976-207.9099731-88.1600342-268.2700195
	c46.9700317,33.7000122,90.5700073,84.2800293,108.7000122,134.6600342
	c-4.0599976-36.0499878,4.8900146-74.2399902,34.3100128-112.3500366
	c-50.010025,105.1600342,21.2600098,218.9900513,82.2700195,282.1100464
	c-39.6500244-12.3300171-101.0200195-21.9700317-143.0000153-22.3099976
	C219.7032013,433.6088867,221.6531525,428.9989014,223.3932037,424.3688965z"/>
<path fill="#3A6351" stroke="#000000" stroke-width="0.5" stroke-linecap="round" stroke-linejoin="round" d="
	M319.2414856,198.2961426"/>
<path fill="#3A6351" stroke="#000000" stroke-width="0.5" stroke-linecap="round" stroke-linejoin="round" d="
	M416.7970276,178.9627991"/>
<path fill="#6D6E71" d="M0.0023413,474.7991943c-0.5403137-2.8474731,92.4989624-38.1894531,213.3858337-37.7952576
	c181.3376617,0.5913086,317.3406982,81.2434387,316.5354004,83.4645691
	c-0.7038574,1.9412842-105.4506226-57.3163452-263.77948-69.2913208
	C114.8911057,439.7373962,0.5987769,477.9423828,0.0023413,474.7991943z"/>
<path fill="#F2EDD7" d="M119.2716217,142.524826c-3.5256348-0.9446869-6.8881302-2.1963654-10.0661545-3.71875
	c-3.1780167-1.5223694-6.1715622-3.3154449-8.9592972-5.3429413c-2.7877426-2.0274811-5.3696671-4.2893677-7.7244568-6.7493896
	c-2.3547821-2.4600067-4.4824295-5.1181335-6.3616028-7.9380951c3.037384-1.5025482,6.2090378-2.7407227,9.4783478-3.6937561
	c3.26931-0.9530258,6.6362686-1.6209183,10.0642624-1.9828949c3.4279938-0.3619843,6.9170151-0.4180603,10.4304504-0.1474686
	c3.513443,0.2705917,7.0512848,0.8678513,10.5769272,1.8125458c3.5256195,0.9446869,6.8881073,2.1963654,10.0661163,3.7187424
	s6.1715546,3.3154526,8.9592896,5.3429337c2.7877502,2.0274811,5.3696747,4.2893753,7.724472,6.7493668
	c2.3547974,2.4600067,4.4824524,5.1181335,6.3616486,7.9380798c-3.0373993,1.5025635-6.2090759,2.7407379-9.4783936,3.6937714
	c-3.2693176,0.9530487-6.6362762,1.6209412-10.06427,1.9829254s-6.9170227,0.4180603-10.4304504,0.1474762
	C126.335083,144.0667725,122.7972488,143.4695282,119.2716217,142.524826z"/>
<path fill="#E48257" d="M130.4951019,218.4620972c-3.1728745,0.970047-6.3678589,1.6248627-9.551033,1.982132
	s-6.3545303,0.4170227-9.4801559,0.1969147c-3.125618-0.2200928-6.2054977-0.7200165-9.205719-1.4820862
	c-3.0002136-0.7620697-5.9207687-1.7862701-8.7277298-3.0549164c1.6176682-2.6213684,3.4661865-5.1036072,5.5273438-7.4130859
	c2.0611496-2.3094788,4.3349304-4.4461823,6.8031158-6.3764648c2.4681778-1.9302979,5.1307602-3.6541748,7.9695206-5.1379852
	c2.8387527-1.4838104,5.8536835-2.7275543,9.0265579-3.6976013c3.1728592-0.970047,6.367836-1.6248474,9.5510025-1.982132
	c3.1831665-0.3572693,6.3545227-0.4170074,9.4801483-0.1969147c3.1256104,0.2200928,6.2055054,0.7200165,9.205719,1.4820709
	c3.0002289,0.7620544,5.9207764,1.7862549,8.7277527,3.0548706c-1.6176758,2.6213989-3.4662018,5.103653-5.527359,7.4131317
	c-2.0611572,2.309494-4.3349457,4.4461975-6.8031311,6.3764954c-2.4681702,1.9302826-5.1307526,3.6541595-7.9694977,5.13797
	C136.6828766,216.2483063,133.6679688,217.4920654,130.4951019,218.4620972z"/>
<path fill="#F2EDD7" d="M247.58255,160.5253296c-2.6260071,4.5483856-5.6179504,8.7557068-8.9174194,12.6058044
	c-3.299469,3.8501129-6.9064789,7.3430023-10.7626343,10.4625549c-3.8561707,3.1195374-7.9614716,5.8657379-12.2575531,8.2224579
	s-8.7829437,4.3239594-13.4021759,5.8855896c-0.9571838-4.7811737-1.4969177-9.6505127-1.6039734-14.5493774
	c-0.1070557-4.89888,0.2185822-9.8272705,0.9921112-14.7265778s1.9949646-9.769516,3.6795197-14.5519867
	c1.6845551-4.782486,3.8322296-9.4772339,6.4582367-14.0256195s5.6179352-8.7556763,8.9174042-12.6057816
	c3.299469-3.85009,6.9064636-7.3429794,10.762619-10.462532s7.9614716-5.8657608,12.2575531-8.222496
	c4.2960663-2.3567352,8.7829132-4.3239975,13.4021301-5.8856506c0.9572144,4.7812042,1.4969482,9.6505661,1.6040039,14.5494537
	c0.1070557,4.89888-0.2185669,9.8272934-0.9920959,14.7266006s-1.9949493,9.7695007-3.6795044,14.5519714
	C252.3562317,151.2822113,250.2085571,155.9769592,247.58255,160.5253296z"/>
<path fill="#E48257" d="M308.5109558,233.5737305c-3.2521667-1.657074-6.2809448-3.5805054-9.072998-5.7303619
	s-5.3473816-4.5261383-7.6526794-7.0889282c-2.3052673-2.5627899-4.3605042-5.3120575-6.1523743-8.207901
	s-3.320343-5.9382477-4.5721436-9.0872803c3.2833862-0.8382111,6.6431885-1.3899078,10.0391846-1.6423798
	c3.3960266-0.2524872,6.8282471-0.2057495,10.2565918,0.1529083c3.4283447,0.3586426,6.8527832,1.0292053,10.2331848,2.0243683
	s6.7167664,2.3149261,9.9689636,3.9720001c3.2521667,1.6570587,6.2809143,3.5804901,9.0729675,5.7303467
	s5.3473816,4.5261383,7.6526489,7.088913c2.3052979,2.5627747,4.3605347,5.3120575,6.1524048,8.207901
	c1.7918701,2.8958282,3.3203735,5.9382324,4.5722046,9.087265c-3.2834167,0.8382111-6.643219,1.3899078-10.0392456,1.642395
	c-3.3960266,0.2524719-6.8282776,0.2057343-10.2566223-0.1529083s-6.8527832-1.0291901-10.2331848-2.024353
	C315.0994873,236.5505524,311.7631226,235.2307892,308.5109558,233.5737305z"/>
<path fill="#F2EDD7" d="M328.9488525,162.7638245c-4.6372681,2.4656677-9.4041138,4.4481964-14.2424622,5.9648132
	s-9.74823,2.567337-14.6715393,3.1694183c-4.9233398,0.602066-9.8601074,0.7554932-14.7522583,0.4775238
	c-4.8921509-0.2779541-9.7396851-0.9873199-14.4845581-2.1108093c1.7218933-4.5618896,3.8445435-8.9773407,6.349762-13.1885529
	c2.5052185-4.2111969,5.3930054-8.2181702,8.6452332-11.9631042s6.8688965-7.2278442,10.8317871-10.3909302
	c3.9629211-3.1631012,8.2720947-6.0063782,12.9093628-8.4720535c4.6372375-2.4656754,9.4040833-4.4481888,14.2424316-5.9648056
	s9.7481995-2.5673294,14.6715088-3.1694107c4.9233093-0.6020737,9.8600769-0.7555084,14.7522583-0.477562
	c4.8921509,0.2779465,9.7396851,0.9872818,14.4845581,2.1107407c-1.7218933,4.5619354-3.8445435,8.9774017-6.349762,13.1886215
	c-2.5052185,4.2112274-5.3930359,8.2182007-8.6452637,11.9631348c-3.2521973,3.7449493-6.868866,7.2278442-10.8317566,10.3909454
	C337.8952637,157.4548798,333.5860901,160.2981567,328.9488525,162.7638245z"/>
<path fill="#E48257" d="M141.3002777,86.9959412c-3.5450592-4.7044525-6.5776215-9.6372147-9.1066132-14.7309418
	c-2.529007-5.0937347-4.5544281-10.348423-6.0852127-15.6967354s-2.566925-10.7902374-3.1173553-16.2584305
	c-0.5504379-5.4681931-0.6151581-10.9626579-0.2030945-16.4160404c5.3557053,1.1070652,10.6194687,2.6837635,15.7240982,4.7201176
	c5.1046448,2.0363541,10.0501556,4.5323601,14.7693329,7.4780426c4.7191772,2.9456787,9.2120209,6.3410339,13.4113312,10.1760788
	c4.1993256,3.8350449,8.1051178,8.1097832,11.650177,12.8142357c3.5450439,4.7044296,6.5775909,9.6371765,9.1065826,14.730896
	c2.5289764,5.0937195,4.5543976,10.3484039,6.0851898,15.6967087c1.5307922,5.3483124,2.5669403,10.7902374,3.1174011,16.2584305
	c0.5504456,5.4682007,0.6151886,10.9626617,0.2031555,16.4160538c-5.3557281-1.1070709-10.6195221-2.6837692-15.7241821-4.7201233
	c-5.1046448-2.0363541-10.0501709-4.5323639-14.7693481-7.4780426c-4.7191772-2.9456711-9.2120209-6.3410187-13.4113312-10.1760559
	S144.8453217,91.7003708,141.3002777,86.9959412z"/>
<path fill="#F2EDD7" d="M252.9979858,49.0087013c0.082428,4.7224426-0.2751923,9.3514519-1.0353241,13.8475456
	s-1.9227905,8.8592758-3.4504242,13.0500565c-1.5276337,4.1907883-3.4202576,8.2091827-5.6403198,12.0157013
	c-2.2200775,3.8065186-4.7675934,7.4011612-7.6050415,10.7444534c-2.9523773-3.2422256-5.6237793-6.7457733-7.9753265-10.472496
	c-2.3515625-3.7267227-4.383255-7.6766129-6.0562134-11.8115387c-1.6729584-4.1349182-2.9871674-8.4548645-3.9037476-12.9216881
	s-1.4355316-9.0805359-1.5179596-13.8029785c-0.082428-4.7224236,0.2751923-9.3514137,1.0353241-13.8474998
	s1.9227753-8.8592587,3.4504089-13.050045c1.5276184-4.1907864,3.4202423-8.2091837,5.6402893-12.0157127
	C228.1597137,6.9379706,230.7072296,3.3433111,233.5446472,0c2.9523926,3.2422495,5.6238251,6.7458124,7.9753876,10.4725428
	s4.3832703,7.6766291,6.0562286,11.8115492s2.9871674,8.4548607,3.9037476,12.9216766
	C252.3966064,39.6725883,252.9155426,44.2862778,252.9979858,49.0087013z"/>
<path fill="#E48257" d="M322.9905701,101.411644c-3.9030151,3.5142899-8.048645,6.5911255-12.3763733,9.2332001
	s-8.8375854,4.8493881-13.4689941,6.6246338s-9.3844299,3.1184311-14.1985168,4.0322418s-9.6892395,1.3982544-14.5649414,1.4560165
	c0.5671082-4.8429489,1.5585022-9.6407547,2.97052-14.3329315c1.4120178-4.6921844,3.2446899-9.2787476,5.4943237-13.6992264
	c2.2496338-4.4204865,4.9162598-8.674881,7.9962463-12.7027359c3.0799561-4.0278473,6.5732727-7.829155,10.4762878-11.3434448
	c3.9030151-3.5142822,8.048645-6.5911102,12.3763733-9.2331772c4.3276978-2.642067,8.8375244-4.8493767,13.4689636-6.62463
	c4.6314087-1.7752495,9.3843994-3.1184387,14.1984863-4.0322685c4.8140869-0.913826,9.6892395-1.3982925,14.5649719-1.4560928
	c-0.5671082,4.8429871-1.5585022,9.6408119-2.9705505,14.3330116c-1.4120178,4.6921959-3.2446594,9.2787666-5.4942932,13.6992531
	s-4.9162598,8.674881-7.9962158,12.7027283C330.3868713,94.0960693,326.8935852,97.8973618,322.9905701,101.411644z"/>
<g>
	<path fill="#E48257" d="M109.7925797,545.1881714c-0.8393555-0.4199219-1.2587891-0.9082031-1.2587891-1.46875
		c0-0.4199219,0.2783203-1.1181641,0.8393555-2.0986328c0.559082-0.9082031,0.8032227-1.6083984,0.734375-2.0986328
		l-0.3149414-9.2324219l-0.734375-28.6445312l-0.2099609-12.6953125c-0.0703125-7.7646484-0.2456055-12.625-0.5244141-14.5839844
		c-0.1411133-0.7695312-0.4199219-1.6435547-0.8393555-2.6230469c-0.4902344-1.328125-0.734375-2.2724609-0.734375-2.8330078
		c0-1.6787109,2.6572266-2.5185547,7.9741211-2.5185547h0.5244141c3.5673828,0,6.6445312,1.2246094,9.2333984,3.671875
		c2.027832,1.8886719,3.8457108,4.8632812,5.455574,8.9189453c1.1181641,3.2177734,1.9575195,6.8203125,2.5185547,10.8066406
		c0.2783203,2.0986328,0.5244141,5.3173828,0.734375,9.6533203v3.2529297c0,4.3378906-0.5771484,9.0410156-1.7314453,14.1113281
		c-1.1538086,5.0732422-2.7802734,9.8105469-4.8789139,14.2177734c-1.2587891,2.7978516-2.8852539,5.3164062-4.8789062,7.5537109
		c-1.9936523,2.2402344-3.8999023,4.0058594-5.7182617,5.2988281c-1.8198242,1.2949219-3.0424805,1.9414062-3.6723633,1.9414062
		C111.4712906,545.8180542,110.6319351,545.6080933,109.7925797,545.1881714z M113.8848648,540.4664917
		c2.5869141-1.3271484,4.8950195-3.2685547,6.9248047-5.8232422c2.027832-2.5517578,3.6362305-5.3671875,4.8261719-8.4462891
		c1.0493164-2.5869141,1.9233398-5.5419922,2.6230545-8.8652344c0.6987305-3.3222656,1.1889648-6.4169922,1.4692383-9.2861328
		c0.2094727-2.5175781,0.3144531-4.9316406,0.3144531-7.2392578c0-20.4238281-5.6313553-30.6376953-16.8925858-30.6376953
		c-1.46875,0-2.203125,0.3847656-2.203125,1.1542969c0,2.4492188,0.1391602,5.3505859,0.4194336,8.7080078
		c0.2788086,3.4287109,0.4199219,6.3320312,0.4199219,8.7089844c0,3.8476562,0.2788086,10.5283203,0.8393555,20.0400391
		c0.4882812,8.2548828,0.734375,14.8994141,0.734375,19.9355469v11.7509766H113.8848648z"/>
	<path fill="#E48257" d="M171.4869232,546.1852417c-0.2802734-0.2460938-0.4897461-0.8916016-0.6293945-1.9414062
		c-0.6293945-5.1044922-1.0146484-8.2890625-1.1538086-9.5478516l-0.5249023-4.1972656
		c-1.5395508-0.3486328-3.2885742-0.5244141-5.2460938-0.5244141l-3.7773438-0.2099609
		c-1.6787109-0.2089844-2.9033203-0.3144531-3.6723633-0.3144531c-0.4194336,0-0.6655273,0.1757812-0.734375,0.5244141
		c0,0.2099609-0.0361328,0.3154297-0.1049805,0.3154297l-0.2094727,2.0976562
		c-0.0708008,1.2597656-0.4560547,3.7773438-1.1542969,7.5546875c-0.3510742,1.8886719-0.7705078,3.3574219-1.2592773,4.4072266
		c-0.5605469,1.1894531-1.0849609,1.7832031-1.5737305,1.7832031c-0.4194336,0-0.8754883-0.1933594-1.3637695-0.5771484
		c-0.4902344-0.3837891-0.7348633-0.7871094-0.7348633-1.2060547l0.1049805-0.3154297l0.1049805-0.3144531
		c1.2592773-4.9658203,2.3085938-9.8974609,3.1479492-14.7939453l1.2587891-6.5048828l1.2592773-7.9746094l1.1538086-6.9248047
		c0.3496094-1.8886719,0.9790039-4.9316406,1.8886719-9.1279297c0.9790039-4.7568359,1.5742188-8.0087891,1.7836914-9.7578125
		c0.0688477-0.2099609,0.2099609-1.5039062,0.4199219-3.8828125c0.2788086-2.6572266,0.5244141-4.6162109,0.734375-5.875
		c0.2099609-1.8183594,0.4199219-2.8681641,0.6293945-3.1484375h0.7348633
		c0.2094727,0.0703125,0.4541016,0.1054688,0.734375,0.1054688c0.8393555,0,1.46875-0.2099609,1.8886719-0.6298828
		c0.4882812,0,0.9262695,0.1572266,1.3115234,0.4726562c0.3833008,0.3144531,0.5766602,0.6816406,0.5766602,1.1015625
		c0,3.3574219,0.2446289,7.2050781,0.7348633,11.5410156c0.2783203,2.2392578,0.4882812,4.0917969,0.6293945,5.5615234
		c0.769043,9.0234375,2.7280273,25.9511719,5.8754883,50.7822266v0.3144531c0,0.6992188-0.2802734,1.2236328-0.8393555,1.5742188
		C172.4312592,546.5524292,171.7657318,546.4293823,171.4869232,546.1852417z M168.6544037,527.666687
		c-0.7001953-10.0732422-2.0297852-24.9355469-3.9873047-44.5927734l-5.6655273,28.0146484
		c-1.6103516,8.0449219-2.4135742,13.1152344-2.4135742,15.2138672c0,0.3505859,1.328125,0.6650391,3.9873047,0.9443359
		c2.6572266,0.2802734,5,0.4199219,7.0297852,0.4199219H168.6544037z"/>
	<path fill="#E48257" d="M193.6241302,544.5592651c-0.3505859,0-0.6293945,0.0361328-0.8393555,0.1044922h-0.8393555
		c-1.5395508,0-2.5180664-0.3496094-2.9375-1.0488281c0-0.4892578,0.2783203-0.9082031,0.8393555-1.2597656l0.5244141-0.5244141
		h3.0429688l0.4194336-0.4199219l0.2099609-0.9443359l0.1049805-1.2587891c0-4.265625-0.1049805-8.0791016-0.3149414-11.4365234
		l-0.2099609-3.8818359l-0.2094727-7.6591797c0-2.7285156,0.1044922-6.8203125,0.3144531-12.2763672l0.2099609-12.1708984
		c0-5.3154297-0.175293-9.3730469-0.5244141-12.1708984c-0.6298828-0.2099609-1.6791992-0.3154297-3.1479492-0.3154297
		l-1.1542969,0.1054688c-0.4194336,0.0703125-0.8754883,0.1044922-1.3637695,0.1044922
		c-1.3295898,0-1.9936523-0.59375-1.9936523-1.7832031c0-0.2792969,0.3149414-0.5595703,0.9443359-0.8398438
		c0.6293945-0.2783203,1.1542969-0.4199219,1.5737305-0.4199219c2.6577148,0,5.3149414,0.1416016,7.9741211,0.4199219
		c1.6083984,0.0703125,3.2167969,0.3857422,4.8266602,0.9443359c1.2592773,0.4199219,1.8886719,1.0146484,1.8886719,1.7841797
		c0,0.140625-0.1049805,0.4189453-0.3149414,0.8388672l-2.4130859,0.2099609
		c-0.4902344-0.4199219-1.5048828-0.6298828-3.0429688-0.6298828l-0.5244141,0.3154297
		c0.2099609,0.6289062,0.3149414,2.4833984,0.3149414,5.5605469c0,4.6162109-0.0361328,8.7792969-0.1049805,12.4863281
		l-0.2099609,12.4853516c0,3.1474609,0.1391602,6.9609375,0.4194336,11.4365234
		c0.2099609,5.1064453,0.3149414,8.9550781,0.3149414,11.5419922v1.3632812
		c-0.0703125,0.4902344-0.1049805,1.1201172-0.1049805,1.8886719c0,1.6103516,0.1049805,2.5888672,0.3149414,2.9384766
		l-0.1049805,0.2099609c0,0.6992188,0.769043,1.0488281,2.3081055,1.0488281c0.6298828,0,1.1542969-0.0341797,1.5742188-0.1054688
		h1.5737305c2.027832,0,3.0424805,0.4902344,3.0424805,1.4697266c0,0.6289062-0.2094727,1.1376953-0.6293945,1.5214844
		c-0.4194336,0.3847656-0.9804688,0.5761719-1.6787109,0.5761719c-0.6293945,0-1.1904297-0.0683594-1.6787109-0.2089844
		c-0.5605469-0.0693359-1.1542969-0.1054688-1.7836914-0.1054688c-0.4199219,0-1.0493164,0.1757812-1.8886719,0.5244141
		c-0.8393555,0.4199219-1.46875,0.6298828-1.8886719,0.6298828
		C194.8472748,545.6080933,193.9029388,545.2584839,193.6241302,544.5592651z"/>
	<path fill="#E48257" d="M246.3477631,545.3981323c-0.2456055-0.4199219-0.472168-1.0488281-0.6816406-1.8886719
		c-0.0708008-0.5585938-0.2099609-1.0488281-0.4199219-1.46875l0.1049805-0.3144531
		c-0.5605469-3.2871094-1.7495117-7.3085938-3.5673828-12.0664062l-1.8886719-5.4560547
		c-0.1411133-0.1396484-0.8051758-1.9228516-1.9936523-5.3505859l-0.8393555-2.5185547
		c-6.2954102-19.4453125-10.2480469-29.9716797-11.855957-31.5820312c-0.5610352,1.8886719-0.8398438,4.3378906-0.8398438,7.3447266
		c0,1.6103516,0.034668,3.0087891,0.1049805,4.1972656l0.1049805,4.0917969l-0.1049805,2.5185547
		c-0.0703125,0.7705078-0.1049805,1.609375-0.1049805,2.5175781c0,1.5390625,0.0693359,2.8691406,0.2099609,3.9873047
		l0.2099609,3.3574219h-0.3149414c0,11.6826172,0.2446289,18.1171875,0.7348633,19.3056641v9.4433594
		c0.2783203,0.5605469,0.4194336,1.2949219,0.4194336,2.203125c0,0.5605469-0.1933594,1.0488281-0.5771484,1.46875
		c-0.3852539,0.4199219-0.8574219,0.6298828-1.4165039,0.6298828c-1.46875,0-2.203125-1.8886719-2.203125-5.6660156
		l0.2099609-3.3574219c0.1391602-1.0488281,0.2094727-2.203125,0.2094727-3.4628906
		c0-3.3574219-0.1049805-8.3935547-0.3144531-15.1083984c-0.2099609-6.7148438-0.3149414-11.7509766-0.3149414-15.109375
		c0-2.0273438,0.1049805-5.140625,0.3149414-9.3378906c0.2094727-4.1259766,0.3144531-7.203125,0.3144531-9.2333984v-1.3632812
		c0-3.4267578,0.6298828-5.6660156,1.8886719-6.7158203l0.3149414,0.3154297l1.0493164-0.2099609
		c0.2783203,0.0703125,0.5932617,0.2802734,0.9443359,0.6289062c0.2783203,0.28125,0.4194336,0.5957031,0.4194336,0.9443359
		l0.2099609,0.6298828c0,0.140625,0.0341797,0.3144531,0.1049805,0.5244141
		c1.1181641,4.9677734,3.6362305,11.9267578,7.5541992,20.8798828c3.9873047,9.4433594,6.4692383,15.7041016,7.449707,18.78125
		c0.6982422,2.4492188,1.2587891,4.6162109,1.6787109,6.5048828c1.328125,5.9462891,2.9018555,10.5283203,4.7216797,13.7451172
		l0.2094727-0.3144531c1.6083984-15.5283203,2.4135742-34.5888672,2.4135742-57.1835938l-0.1049805-1.2587891
		c-0.0708008-0.3486328-0.1049805-0.8027344-0.1049805-1.3642578c0-1.46875,0.4887695-2.203125,1.46875-2.203125
		c0.6298828,0,1.1708984,0.3144531,1.6259766,0.9443359c0.4541016,0.6298828,0.6826172,1.3300781,0.6826172,2.0986328v7.0292969
		l-0.5253906,0.8398438c0,6.6464844-0.3847656,17.5585938-1.1533203,32.7363281
		c-0.7705078,15.1787109-1.5053711,23.4335938-2.2036133,24.7617188l-1.7836914,0.4189453v0.1054688l-0.1049805-0.1054688
		l-1.0493164,0.3154297C246.9937592,546.0280151,246.592392,545.8180542,246.3477631,545.3981323z"/>
	<path fill="#E48257" d="M282.3872986,545.4508667c-0.3505859-0.5244141-0.5244141-1.1708984-0.5244141-1.9414062v-9.3378906
		v-9.3378906l-0.2099609-16.7880859c-0.2099609-7.4833984-0.3144531-13.0791016-0.3144531-16.7871094l0.1044922-3.0429688
		v-6.8203125c0-7.5546875-0.0703125-11.3320312-0.2089844-11.3320312H269.377533
		c-0.5605469,0-1.0673828-0.1386719-1.5214844-0.4189453c-0.4560547-0.2792969-0.6826172-0.6640625-0.6826172-1.1542969
		c0-0.5595703,0.1054688-0.9443359,0.3154297-1.1542969s0.7685547-0.3837891,1.6787109-0.5244141
		c0.9785156-0.2099609,2.3769531-0.3154297,4.1962891-0.3154297h10.4931641l11.5410156-0.1044922
		c0.8388672,0,1.4160156,0.140625,1.7314453,0.4199219c0.3144531,0.2802734,0.4716797,0.734375,0.4716797,1.3642578
		c0,1.0488281-0.6650391,1.5732422-1.9931641,1.5732422h-4.7216797h-4.6162109l-0.9443359,0.1054688l0.1044922,6.0849609v8.1845703
		v42.5986328v8.7080078l0.1054688,7.7646484v0.2099609c0,0.5605469-0.0361328,1.0322266-0.1054688,1.4160156
		c-0.0703125,0.3857422-0.2099609,0.6826172-0.4199219,0.8916016c-0.2089844,0.3496094-0.5605469,0.5253906-1.0488281,0.5253906
		C283.261322,546.2379761,282.736908,545.9752808,282.3872986,545.4508667z"/>
	<path fill="#E48257" d="M328.8667908,546.8668823c-0.8388672-0.9091797-1.7490234-3.3212891-2.7275391-7.2392578
		c-0.9804688-3.9169922-1.8886719-8.3232422-2.7285156-13.2207031c-0.5605469-3.9863281-1.3632812-7.9375-2.4130859-11.8564453
		c-0.8388672-3.4960938-1.6445312-5.2460938-2.4130859-5.2460938h-0.3144531c-1.5400391,0-2.3085938,0.4902344-2.3085938,1.4697266
		c0,5.0361328,0.2783203,12.6953125,0.8398438,22.9775391c0.2783203,6.2958984,0.5927734,9.9677734,0.9433594,11.0166016
		l-0.8388672,1.7841797h-1.46875l-0.8398438-0.8398438c-1.1191406-32.3154297-1.6787109-54.3496094-1.6787109-66.1005859
		c0-0.7695312,0.0527344-1.3984375,0.1572266-1.8886719c0.1054688-0.4892578,0.3310547-0.9443359,0.6826172-1.3642578
		c0.2783203-0.4882812,0.7685547-0.734375,1.46875-0.734375c3.5673828,0,6.4345703,0.875,8.6035156,2.6230469
		c2.1669922,1.7490234,3.2529297,4.2675781,3.2529297,7.5546875v7.6591797c0,1.3291016-0.4384766,3.1132812-1.3115234,5.3505859
		c-0.8759766,2.2402344-1.8369141,4.3017578-2.8857422,6.1904297l-1.3642578,2.6230469
		c0.7695312,3.5673828,2.2910156,9.9863281,4.5644531,19.2539062c2.2724609,9.2695312,3.5146484,14.1826172,3.7246094,14.7412109
		c0.0693359,0.0703125,0.1572266,0.2460938,0.2626953,0.5244141c0.1044922,0.28125,0.3310547,0.7001953,0.6816406,1.2597656
		c0.4882812,0.9804688,0.734375,1.8193359,0.734375,2.5175781c0,0.9794922-0.3847656,1.46875-1.1542969,1.46875
		L328.8667908,546.8668823z M320.0533142,504.6881714c1.0498047-1.328125,1.8886719-3.0429688,2.5185547-5.1416016
		c1.1181641-4.265625,1.6787109-7.6591797,1.6787109-10.1767578c0-1.6083984-0.0888672-2.9384766-0.2626953-3.9873047
		c-0.1748047-1.0498047-0.4716797-2.1669922-0.8916016-3.3574219c-0.8398438-2.4482422-2.8330078-3.6728516-5.9804688-3.6728516
		c-0.3505859,0-0.6298828,0.2988281-0.8398438,0.8925781c-0.2099609,0.5947266-0.3144531,1.2060547-0.3144531,1.8359375
		c0,4.6865234,0.0683594,8.9179688,0.2099609,12.6953125c0.0683594,3.7773438,0.1044922,8.0107422,0.1044922,12.6962891
		l0.2099609,0.2089844C317.8140564,506.6813354,319.0044861,506.0172729,320.0533142,504.6881714z"/>
	<path fill="#E48257" d="M348.276947,544.7682495v-1.3632812c0.0693359-0.3496094,0.1054688-0.7695312,0.1054688-1.2597656
		l-0.4199219-0.4189453c0.5585938-1.46875,0.8398438-2.9023438,0.8398438-4.3017578
		c0-1.6083984-0.1054688-3.9169922-0.3154297-6.9257812l-0.2099609-6.9248047c0-3.4960938,0.1054688-8.7421875,0.3154297-15.7382812
		c0.2783203-6.2246094,0.4189453-11.5048828,0.4189453-15.8427734l-0.2089844-6.2958984
		c-0.1416016-1.8886719-0.2099609-3.9873047-0.2099609-6.2949219c0-1.0498047,0.2441406-1.8007812,0.734375-2.2558594
		c0.4882812-0.4541016,1.2587891-0.6826172,2.3076172-0.6826172c0.6992188,0,1.2597656,0.2099609,1.6787109,0.6298828
		c0.1396484,0.0703125,1.1542969,0.2099609,3.0429688,0.4199219c1.7480469,0.2099609,3.2529297,0.5244141,4.5117188,0.9443359
		c1.328125,0.4199219,1.9941406,0.9443359,1.9941406,1.5732422c0,0.7001953-0.6660156,1.4003906-1.9941406,2.0986328
		c-3.9873047-1.328125-6.8193359-1.9931641-8.4980469-1.9931641l-0.5253906,0.6289062
		c0.0693359,0.6298828,0.1054688,2.1347656,0.1054688,4.5117188c0,3.0087891-0.0703125,5.7021484-0.2099609,8.0791016
		c-0.0703125,2.4492188-0.1054688,5.1777344-0.1054688,8.1845703c0,1.9589844,0.4892578,2.9375,1.4697266,2.9375
		l1.6787109-0.1044922c0.5585938-0.0693359,1.1542969-0.1054688,1.7832031-0.1054688
		c2.7285156,0,4.0917969,0.6298828,4.0917969,1.8886719c0,0.7705078-0.1748047,1.4169922-0.5244141,1.9414062
		c-0.3505859,0.5244141-0.875,0.7871094-1.5732422,0.7871094c-1.0498047,0-1.8544922-0.2792969-2.4140625-0.8398438
		l-3.3574219-0.5244141h-0.5244141l-0.5244141,0.5244141v0.3144531c0.1396484,1.1904297,0.2099609,3.953125,0.2099609,8.2890625
		c0,2.7285156-0.0361328,5.2119141-0.1054688,7.4501953l-0.1044922,7.4492188c0,2.7275391,0.1044922,5.5263672,0.3144531,8.3935547
		c0.0693359,1.6103516,0.4199219,2.6757812,1.0498047,3.2001953c0.6289062,0.5244141,1.7832031,0.7871094,3.4619141,0.7871094
		l1.8886719-0.1044922c0.6298828-0.0693359,1.328125-0.1054688,2.0986328-0.1054688
		c2.0283203,0,3.0429688,0.4560547,3.0429688,1.3642578c0,1.2587891-1.5400391,1.8886719-4.6171875,1.8886719h-8.6035156
		C349.1167908,546.9723511,348.4165955,546.2379761,348.276947,544.7682495z"/>
	<path fill="#E48257" d="M380.2779236,544.7682495v-1.3632812c0.0693359-0.3496094,0.1054688-0.7695312,0.1054688-1.2597656
		l-0.4199219-0.4189453c0.5585938-1.46875,0.8398438-2.9023438,0.8398438-4.3017578
		c0-1.6083984-0.1054688-3.9169922-0.3154297-6.9257812l-0.2099609-6.9248047c0-3.4960938,0.1054688-8.7421875,0.3154297-15.7382812
		c0.2783203-6.2246094,0.4189453-11.5048828,0.4189453-15.8427734l-0.2089844-6.2958984
		c-0.1416016-1.8886719-0.2099609-3.9873047-0.2099609-6.2949219c0-1.0498047,0.2441406-1.8007812,0.734375-2.2558594
		c0.4882812-0.4541016,1.2587891-0.6826172,2.3076172-0.6826172c0.6992188,0,1.2597656,0.2099609,1.6787109,0.6298828
		c0.1396484,0.0703125,1.1542969,0.2099609,3.0429688,0.4199219c1.7480469,0.2099609,3.2529297,0.5244141,4.5117188,0.9443359
		c1.328125,0.4199219,1.9941406,0.9443359,1.9941406,1.5732422c0,0.7001953-0.6660156,1.4003906-1.9941406,2.0986328
		c-3.9873047-1.328125-6.8193359-1.9931641-8.4980469-1.9931641l-0.5253906,0.6289062
		c0.0693359,0.6298828,0.1054688,2.1347656,0.1054688,4.5117188c0,3.0087891-0.0703125,5.7021484-0.2099609,8.0791016
		c-0.0703125,2.4492188-0.1054688,5.1777344-0.1054688,8.1845703c0,1.9589844,0.4892578,2.9375,1.4697266,2.9375
		l1.6787109-0.1044922c0.5585938-0.0693359,1.1542969-0.1054688,1.7832031-0.1054688
		c2.7285156,0,4.0917969,0.6298828,4.0917969,1.8886719c0,0.7705078-0.1748047,1.4169922-0.5244141,1.9414062
		c-0.3505859,0.5244141-0.875,0.7871094-1.5732422,0.7871094c-1.0498047,0-1.8544922-0.2792969-2.4140625-0.8398438
		l-3.3574219-0.5244141h-0.5244141l-0.5244141,0.5244141v0.3144531c0.1396484,1.1904297,0.2099609,3.953125,0.2099609,8.2890625
		c0,2.7285156-0.0361328,5.2119141-0.1054688,7.4501953l-0.1044922,7.4492188c0,2.7275391,0.1044922,5.5263672,0.3144531,8.3935547
		c0.0693359,1.6103516,0.4199219,2.6757812,1.0498047,3.2001953c0.6289062,0.5244141,1.7832031,0.7871094,3.4619141,0.7871094
		l1.8886719-0.1044922c0.6298828-0.0693359,1.328125-0.1054688,2.0986328-0.1054688
		c2.0283203,0,3.0429688,0.4560547,3.0429688,1.3642578c0,1.2587891-1.5400391,1.8886719-4.6171875,1.8886719h-8.6035156
		C381.1177673,546.9723511,380.417572,546.2379761,380.2779236,544.7682495z"/>
</g>
<polyline display="none" fill="#E48257" points="122.5216217,28.9185658 122.6856003,36.4741402 123.430687,43.9429512 
	125.013298,52.3705978 128.7599945,64.4688416 133.2742615,74.3721008 137.5865173,81.7001953 143.2845001,89.5345993 
	149.4915924,96.4811172 156.2359772,102.6717148 162.7637177,107.6216583 171.7229156,113.0883636 178.8173065,116.5046082 
	186.5402832,119.4295044 193.2415009,121.3613052 196.8552704,122.1843567 197.1216125,117.2148666 197.0904694,112.7819214 
	196.7107544,106.39077 195.6581879,98.6664581 194.0187378,91.2693024 191.9894714,84.6326065 189.6824036,78.6607208 
	186.2284241,71.4440536 182.5769653,65.1899185 178.3429413,59.0822678 173.7528076,53.4544411 168.9636078,48.4173355 
	164.0128937,43.9160881 157.9141846,39.1843567 152.7429657,35.7611046 144.4853821,31.2441978 137.4072113,28.1835613 
	129.7657013,25.6197109 126.2285843,24.6746559 "/>
<polygon display="none" fill="#F2EDD7" points="216.6711578,36.927681 218.3022461,29.1116467 220.7564545,21.5449238 
	224.1404419,14.0182095 226.875885,9.1848354 230.3163452,4.0844722 233.5446472,0 235.9381561,2.7629962 237.6848907,4.9598017 
	240.3366394,8.6593351 243.9322815,14.5816145 247.5530548,22.2273197 249.4887695,27.5890446 251.4758606,35.1858444 
	252.6657257,43.140789 252.9979858,49.0087013 252.5939941,58.2342796 251.8390045,63.5529099 250.5940857,69.2294159 
	248.6883392,75.4115753 246.4903107,80.8824081 243.6346283,86.5817337 240.5499115,91.6423569 235.2668762,98.6664581 
	231.4155426,94.0789261 228.2866516,89.7273407 224.4845276,83.3473206 221.4420624,76.8815079 219.1537781,70.5409164 
	217.4422302,63.9789009 216.3949585,57.7787552 215.8020172,50.9926414 216.0377197,46.0903931 216.2794342,41.0632973 "/>
</svg>
